<?xml version="1.0" encoding="UTF-8" standalone="no"?>
<!DOCTYPE svg PUBLIC "-//W3C//DTD SVG 1.1//EN"
 "http://www.w3.org/Graphics/SVG/1.1/DTD/svg11.dtd">
<!-- Generated by graphviz version 2.40.1 (20161225.0304)
 -->
<!-- Pages: 1 -->
<svg width="476pt" height="330pt"
 viewBox="0.00 0.00 475.65 329.57" xmlns="http://www.w3.org/2000/svg" xmlns:xlink="http://www.w3.org/1999/xlink">
<g id="graph0" class="graph" transform="scale(1 1) rotate(0) translate(4 325.567)">
<polygon fill="#ffffff" stroke="transparent" points="-4,4 -4,-325.567 471.6475,-325.567 471.6475,4 -4,4"/>
<!-- 0 -->
<g id="node1" class="node">
<title>0</title>
<ellipse fill="none" stroke="#000000" cx="149.4775" cy="-148.887" rx="27" ry="18"/>
<text text-anchor="middle" x="149.4775" y="-145.187" font-family="Times,serif" font-size="14.00" fill="#000000">0</text>
</g>
<!-- 0&#45;&gt;0 -->
<g id="edge1" class="edge">
<title>0&#45;&gt;0</title>
<path fill="none" stroke="#ff0000" d="M174.9275,-155.577C185.5075,-156.037 194.4775,-153.807 194.4775,-148.887 194.4775,-144.807 188.3275,-142.577 180.2075,-142.197"/>
<polygon fill="#ff0000" stroke="#ff0000" points="179.9275,-140.4471 174.9275,-142.197 179.9274,-143.9471 179.9275,-140.4471"/>
</g>
<!-- 2048 -->
<g id="node2" class="node">
<title>2048</title>
<ellipse fill="none" stroke="#000000" cx="293.5075" cy="-217.547" rx="28.6953" ry="18"/>
<text text-anchor="middle" x="293.5075" y="-213.847" font-family="Times,serif" font-size="14.00" fill="#000000">2048</text>
</g>
<!-- 2048&#45;&gt;0 -->
<g id="edge2" class="edge">
<title>2048&#45;&gt;0</title>
<path fill="none" stroke="#ff0000" d="M270.6875,-206.667C245.0475,-194.437 203.4575,-174.617 176.2875,-161.667"/>
<polygon fill="#ff0000" stroke="#ff0000" points="176.9933,-160.0648 171.7275,-159.487 175.4837,-163.2225 176.9933,-160.0648"/>
</g>
<!-- 3072 -->
<g id="node3" class="node">
<title>3072</title>
<ellipse fill="none" stroke="#000000" cx="57.8015" cy="-35.211" rx="28.6953" ry="18"/>
<text text-anchor="middle" x="57.8015" y="-31.511" font-family="Times,serif" font-size="14.00" fill="#000000">3072</text>
</g>
<!-- 3072&#45;&gt;0 -->
<g id="edge3" class="edge">
<title>3072&#45;&gt;0</title>
<path fill="none" stroke="#ff0000" d="M70.9375,-51.497C87.4375,-71.956 115.7375,-107.037 133.4775,-129.047"/>
<polygon fill="#ff0000" stroke="#ff0000" points="132.1645,-130.2066 136.6675,-132.997 134.8874,-128.0076 132.1645,-130.2066"/>
</g>
<!-- 2047 -->
<g id="node4" class="node">
<title>2047</title>
<ellipse fill="none" stroke="#000000" cx="369.5575" cy="-140.157" rx="28.6953" ry="18"/>
<text text-anchor="middle" x="369.5575" y="-136.457" font-family="Times,serif" font-size="14.00" fill="#000000">2047</text>
</g>
<!-- 4095 -->
<g id="node5" class="node">
<title>4095</title>
<ellipse fill="none" stroke="#000000" cx="421.0475" cy="-95.841" rx="28.6953" ry="18"/>
<text text-anchor="middle" x="421.0475" y="-92.141" font-family="Times,serif" font-size="14.00" fill="#000000">4095</text>
</g>
<!-- 2047&#45;&gt;4095 -->
<g id="edge4" class="edge">
<title>2047&#45;&gt;4095</title>
<path fill="none" stroke="#ff0000" d="M386.7075,-125.397C391.0075,-121.697 395.6675,-117.687 400.1275,-113.847"/>
<polygon fill="#ff0000" stroke="#ff0000" points="401.5103,-114.9656 404.1575,-110.377 399.2266,-112.3133 401.5103,-114.9656"/>
</g>
<!-- 4095&#45;&gt;4095 -->
<g id="edge5" class="edge">
<title>4095&#45;&gt;4095</title>
<path fill="none" stroke="#ff0000" d="M447.8675,-102.547C458.6175,-102.927 467.6475,-100.697 467.6475,-95.841 467.6475,-91.823 461.4575,-89.599 453.2175,-89.168"/>
<polygon fill="#ff0000" stroke="#ff0000" points="452.8792,-87.4158 447.8675,-89.132 452.8555,-90.9157 452.8792,-87.4158"/>
</g>
<!-- 1365 -->
<g id="node6" class="node">
<title>1365</title>
<ellipse fill="none" stroke="#000000" cx="376.3575" cy="-303.567" rx="28.6953" ry="18"/>
<text text-anchor="middle" x="376.3575" y="-299.867" font-family="Times,serif" font-size="14.00" fill="#000000">1365</text>
</g>
<!-- 1365&#45;&gt;2048 -->
<g id="edge6" class="edge">
<title>1365&#45;&gt;2048</title>
<path fill="none" stroke="#ff0000" d="M361.1675,-287.787C347.3875,-273.477 327.0275,-252.337 312.2375,-236.997"/>
<polygon fill="#ff0000" stroke="#ff0000" points="313.3361,-235.615 308.6075,-233.227 310.8149,-238.0426 313.3361,-235.615"/>
</g>
<!-- 128 -->
<g id="node7" class="node">
<title>128</title>
<ellipse fill="none" stroke="#000000" cx="218.8675" cy="-255.897" rx="27" ry="18"/>
<text text-anchor="middle" x="218.8675" y="-252.197" font-family="Times,serif" font-size="14.00" fill="#000000">128</text>
</g>
<!-- 128&#45;&gt;0 -->
<g id="edge7" class="edge">
<title>128&#45;&gt;0</title>
<path fill="none" stroke="#ff0000" d="M208.0275,-239.177C195.9075,-220.487 176.2675,-190.187 163.1175,-169.907"/>
<polygon fill="#ff0000" stroke="#ff0000" points="164.4382,-168.7275 160.2475,-165.487 161.5027,-170.6336 164.4382,-168.7275"/>
</g>
<!-- 2560 -->
<g id="node8" class="node">
<title>2560</title>
<ellipse fill="none" stroke="#000000" cx="36.3665" cy="-104.097" rx="28.6953" ry="18"/>
<text text-anchor="middle" x="36.3665" y="-100.397" font-family="Times,serif" font-size="14.00" fill="#000000">2560</text>
</g>
<!-- 2560&#45;&gt;0 -->
<g id="edge8" class="edge">
<title>2560&#45;&gt;0</title>
<path fill="none" stroke="#ff0000" d="M60.6325,-113.697C78.3145,-120.707 102.3275,-130.217 120.9375,-137.577"/>
<polygon fill="#ff0000" stroke="#ff0000" points="120.7345,-139.3792 126.0275,-139.597 122.0256,-136.126 120.7345,-139.3792"/>
</g>
<!-- 1024 -->
<g id="node9" class="node">
<title>1024</title>
<ellipse fill="none" stroke="#000000" cx="28.5975" cy="-157.987" rx="28.6953" ry="18"/>
<text text-anchor="middle" x="28.5975" y="-154.287" font-family="Times,serif" font-size="14.00" fill="#000000">1024</text>
</g>
<!-- 1024&#45;&gt;0 -->
<g id="edge9" class="edge">
<title>1024&#45;&gt;0</title>
<path fill="none" stroke="#ff0000" d="M57.2455,-155.827C75.2425,-154.467 98.4965,-152.717 117.1575,-151.317"/>
<polygon fill="#ff0000" stroke="#ff0000" points="117.4345,-153.0511 122.2875,-150.927 117.1692,-149.5611 117.4345,-153.0511"/>
</g>
<!-- 1344 -->
<g id="node10" class="node">
<title>1344</title>
<ellipse fill="none" stroke="#000000" cx="412.8375" cy="-224.277" rx="28.6953" ry="18"/>
<text text-anchor="middle" x="412.8375" y="-220.577" font-family="Times,serif" font-size="14.00" fill="#000000">1344</text>
</g>
<!-- 1344&#45;&gt;2048 -->
<g id="edge10" class="edge">
<title>1344&#45;&gt;2048</title>
<path fill="none" stroke="#ff0000" d="M384.2575,-222.657C367.2575,-221.707 345.5975,-220.477 327.6975,-219.477"/>
<polygon fill="#ff0000" stroke="#ff0000" points="327.3591,-217.7049 322.2675,-219.167 327.1596,-221.1992 327.3591,-217.7049"/>
</g>
<!-- 2730 -->
<g id="node11" class="node">
<title>2730</title>
<ellipse fill="none" stroke="#000000" cx="116.1675" cy="-90.108" rx="28.6953" ry="18"/>
<text text-anchor="middle" x="116.1675" y="-86.408" font-family="Times,serif" font-size="14.00" fill="#000000">2730</text>
</g>
<!-- 2730&#45;&gt;0 -->
<g id="edge11" class="edge">
<title>2730&#45;&gt;0</title>
<path fill="none" stroke="#ff0000" d="M125.8075,-107.107C129.3675,-113.387 133.4475,-120.597 137.2075,-127.227"/>
<polygon fill="#ff0000" stroke="#ff0000" points="135.7624,-128.2268 139.7475,-131.717 138.8087,-126.5034 135.7624,-128.2268"/>
</g>
<!-- 3584 -->
<g id="node12" class="node">
<title>3584</title>
<ellipse fill="none" stroke="#000000" cx="126.8475" cy="-18" rx="28.6953" ry="18"/>
<text text-anchor="middle" x="126.8475" y="-14.3" font-family="Times,serif" font-size="14.00" fill="#000000">3584</text>
</g>
<!-- 3584&#45;&gt;0 -->
<g id="edge12" class="edge">
<title>3584&#45;&gt;0</title>
<path fill="none" stroke="#ff0000" d="M129.9475,-35.925C133.9675,-59.193 140.9975,-99.851 145.4375,-125.517"/>
<polygon fill="#ff0000" stroke="#ff0000" points="143.7677,-126.1302 146.3475,-130.757 147.2161,-125.5313 143.7677,-126.1302"/>
</g>
<!-- 3968 -->
<g id="node13" class="node">
<title>3968</title>
<ellipse fill="none" stroke="#000000" cx="199.3875" cy="-76.592" rx="28.6953" ry="18"/>
<text text-anchor="middle" x="199.3875" y="-72.892" font-family="Times,serif" font-size="14.00" fill="#000000">3968</text>
</g>
<!-- 3968&#45;&gt;0 -->
<g id="edge13" class="edge">
<title>3968&#45;&gt;0</title>
<path fill="none" stroke="#ff0000" d="M187.8075,-93.359C180.6975,-103.667 171.5175,-116.967 163.9275,-127.957"/>
<polygon fill="#ff0000" stroke="#ff0000" points="162.3947,-127.0971 160.9975,-132.207 165.2763,-129.0838 162.3947,-127.0971"/>
</g>
<!-- 3840 -->
<g id="node14" class="node">
<title>3840</title>
<ellipse fill="none" stroke="#000000" cx="42.7455" cy="-209.437" rx="28.6953" ry="18"/>
<text text-anchor="middle" x="42.7455" y="-205.737" font-family="Times,serif" font-size="14.00" fill="#000000">3840</text>
</g>
<!-- 3840&#45;&gt;0 -->
<g id="edge14" class="edge">
<title>3840&#45;&gt;0</title>
<path fill="none" stroke="#ff0000" d="M64.0895,-197.327C81.4745,-187.467 106.0575,-173.517 124.3875,-163.127"/>
<polygon fill="#ff0000" stroke="#ff0000" points="125.4197,-164.553 128.8975,-160.557 123.6868,-161.5121 125.4197,-164.553"/>
</g>
<!-- 1920 -->
<g id="node15" class="node">
<title>1920</title>
<ellipse fill="none" stroke="#000000" cx="276.5575" cy="-146.987" rx="28.6953" ry="18"/>
<text text-anchor="middle" x="276.5575" y="-143.287" font-family="Times,serif" font-size="14.00" fill="#000000">1920</text>
</g>
<!-- 1920&#45;&gt;0 -->
<g id="edge15" class="edge">
<title>1920&#45;&gt;0</title>
<path fill="none" stroke="#ff0000" d="M247.7175,-147.417C228.1475,-147.707 202.2275,-148.097 181.9275,-148.397"/>
<polygon fill="#ff0000" stroke="#ff0000" points="181.869,-146.6476 176.8975,-148.477 181.9247,-150.1472 181.869,-146.6476"/>
</g>
<!-- 2944 -->
<g id="node16" class="node">
<title>2944</title>
<ellipse fill="none" stroke="#000000" cx="78.6295" cy="-253.687" rx="28.6953" ry="18"/>
<text text-anchor="middle" x="78.6295" y="-249.987" font-family="Times,serif" font-size="14.00" fill="#000000">2944</text>
</g>
<!-- 2944&#45;&gt;0 -->
<g id="edge16" class="edge">
<title>2944&#45;&gt;0</title>
<path fill="none" stroke="#ff0000" d="M90.0125,-236.847C102.3775,-218.557 122.1375,-189.327 135.4575,-169.627"/>
<polygon fill="#ff0000" stroke="#ff0000" points="137.0071,-170.4594 138.3575,-165.337 134.1074,-168.4993 137.0071,-170.4594"/>
</g>
<!-- 2688 -->
<g id="node17" class="node">
<title>2688</title>
<ellipse fill="none" stroke="#000000" cx="144.8575" cy="-289.737" rx="28.6953" ry="18"/>
<text text-anchor="middle" x="144.8575" y="-286.037" font-family="Times,serif" font-size="14.00" fill="#000000">2688</text>
</g>
<!-- 2688&#45;&gt;0 -->
<g id="edge17" class="edge">
<title>2688&#45;&gt;0</title>
<path fill="none" stroke="#ff0000" d="M145.4575,-271.607C146.2875,-246.257 147.7975,-200.177 148.7175,-172.267"/>
<polygon fill="#ff0000" stroke="#ff0000" points="150.4771,-171.9903 148.8875,-166.937 146.9789,-171.8786 150.4771,-171.9903"/>
</g>
<!-- 4032 -->
<g id="node18" class="node">
<title>4032</title>
<ellipse fill="none" stroke="#000000" cx="427.0275" cy="-49.014" rx="28.6953" ry="18"/>
<text text-anchor="middle" x="427.0275" y="-45.314" font-family="Times,serif" font-size="14.00" fill="#000000">4032</text>
</g>
<!-- 4032&#45;&gt;4095 -->
<g id="edge18" class="edge">
<title>4032&#45;&gt;4095</title>
<path fill="none" stroke="#ff0000" d="M424.7275,-66.985C424.4975,-68.848 424.2475,-70.76 424.0075,-72.67"/>
<polygon fill="#ff0000" stroke="#ff0000" points="422.2644,-72.5047 423.3675,-77.686 425.7363,-72.9477 422.2644,-72.5047"/>
</g>
<!-- 1792 -->
<g id="node19" class="node">
<title>1792</title>
<ellipse fill="none" stroke="#000000" cx="273.1175" cy="-93.802" rx="28.6953" ry="18"/>
<text text-anchor="middle" x="273.1175" y="-90.102" font-family="Times,serif" font-size="14.00" fill="#000000">1792</text>
</g>
<!-- 1792&#45;&gt;0 -->
<g id="edge19" class="edge">
<title>1792&#45;&gt;0</title>
<path fill="none" stroke="#ff0000" d="M249.5775,-104.297C228.8575,-113.517 198.6975,-126.957 176.8975,-136.667"/>
<polygon fill="#ff0000" stroke="#ff0000" points="175.9587,-135.1696 172.1075,-138.807 177.3864,-138.3652 175.9587,-135.1696"/>
</g>
<!-- 192 -->
<g id="node20" class="node">
<title>192</title>
<ellipse fill="none" stroke="#000000" cx="202.9775" cy="-19.719" rx="27" ry="18"/>
<text text-anchor="middle" x="202.9775" y="-16.019" font-family="Times,serif" font-size="14.00" fill="#000000">192</text>
</g>
<!-- 192&#45;&gt;0 -->
<g id="edge20" class="edge">
<title>192&#45;&gt;0</title>
<path fill="none" stroke="#ff0000" d="M195.7675,-37.138C186.1875,-60.249 169.2775,-101.077 158.7675,-126.467"/>
<polygon fill="#ff0000" stroke="#ff0000" points="157.0513,-126.0377 156.7575,-131.327 160.2856,-127.3754 157.0513,-126.0377"/>
</g>
<!-- 1728 -->
<g id="node21" class="node">
<title>1728</title>
<ellipse fill="none" stroke="#000000" cx="153.0475" cy="-228.777" rx="28.6953" ry="18"/>
<text text-anchor="middle" x="153.0475" y="-225.077" font-family="Times,serif" font-size="14.00" fill="#000000">1728</text>
</g>
<!-- 1728&#45;&gt;0 -->
<g id="edge21" class="edge">
<title>1728&#45;&gt;0</title>
<path fill="none" stroke="#ff0000" d="M152.2375,-210.647C151.7275,-199.207 151.0675,-184.327 150.5175,-172.037"/>
<polygon fill="#ff0000" stroke="#ff0000" points="152.261,-171.853 150.2875,-166.937 148.7646,-172.0108 152.261,-171.853"/>
</g>
</g>
</svg>
