<?xml version="1.0" encoding="UTF-8" standalone="no"?>
<!DOCTYPE svg PUBLIC "-//W3C//DTD SVG 1.1//EN"
 "http://www.w3.org/Graphics/SVG/1.1/DTD/svg11.dtd">
<!-- Generated by graphviz version 2.40.1 (20161225.0304)
 -->
<!-- Pages: 1 -->
<svg width="973pt" height="738pt"
 viewBox="0.00 0.00 972.96 737.89" xmlns="http://www.w3.org/2000/svg" xmlns:xlink="http://www.w3.org/1999/xlink">
<g id="graph0" class="graph" transform="scale(1 1) rotate(0) translate(4 733.89)">
<polygon fill="#ffffff" stroke="transparent" points="-4,4 -4,-733.89 968.9579,-733.89 968.9579,4 -4,4"/>
<!-- 0 -->
<g id="node1" class="node">
<title>0</title>
<ellipse fill="none" stroke="#000000" cx="371.1705" cy="-365" rx="27" ry="18"/>
<text text-anchor="middle" x="371.1705" y="-361.3" font-family="Times,serif" font-size="14.00" fill="#000000">0</text>
</g>
<!-- 0&#45;&gt;0 -->
<g id="edge1" class="edge">
<title>0&#45;&gt;0</title>
<path fill="none" stroke="#ff0000" d="M396.6105,-371.69C407.1905,-372.15 416.1705,-369.92 416.1705,-365 416.1705,-360.92 410.0105,-358.69 401.8905,-358.31"/>
<polygon fill="#ff0000" stroke="#ff0000" points="401.6105,-356.5601 396.6105,-358.31 401.6104,-360.0601 401.6105,-356.5601"/>
</g>
<!-- 2048 -->
<g id="node2" class="node">
<title>2048</title>
<ellipse fill="none" stroke="#000000" cx="719.7005" cy="-365" rx="28.6953" ry="18"/>
<text text-anchor="middle" x="719.7005" y="-361.3" font-family="Times,serif" font-size="14.00" fill="#000000">2048</text>
</g>
<!-- 2048&#45;&gt;0 -->
<g id="edge2" class="edge">
<title>2048&#45;&gt;0</title>
<path fill="none" stroke="#ff0000" d="M690.8805,-365C626.5105,-365 471.3705,-365 403.6705,-365"/>
<polygon fill="#ff0000" stroke="#ff0000" points="403.5705,-363.2501 398.5705,-365 403.5704,-366.7501 403.5705,-363.2501"/>
</g>
<!-- 3072 -->
<g id="node3" class="node">
<title>3072</title>
<ellipse fill="none" stroke="#000000" cx="628.2305" cy="-600.36" rx="28.6953" ry="18"/>
<text text-anchor="middle" x="628.2305" y="-596.66" font-family="Times,serif" font-size="14.00" fill="#000000">3072</text>
</g>
<!-- 3072&#45;&gt;0 -->
<g id="edge3" class="edge">
<title>3072&#45;&gt;0</title>
<path fill="none" stroke="#ff0000" d="M611.7605,-585.28C566.4905,-543.83 440.2905,-428.29 391.1305,-383.28"/>
<polygon fill="#ff0000" stroke="#ff0000" points="392.0388,-381.7386 387.1705,-379.65 389.6737,-384.3187 392.0388,-381.7386"/>
</g>
<!-- 2047 -->
<g id="node4" class="node">
<title>2047</title>
<ellipse fill="none" stroke="#000000" cx="677.9705" cy="-18" rx="28.6953" ry="18"/>
<text text-anchor="middle" x="677.9705" y="-14.3" font-family="Times,serif" font-size="14.00" fill="#000000">2047</text>
</g>
<!-- 4095 -->
<g id="node5" class="node">
<title>4095</title>
<ellipse fill="none" stroke="#000000" cx="807.1705" cy="-18" rx="28.6953" ry="18"/>
<text text-anchor="middle" x="807.1705" y="-14.3" font-family="Times,serif" font-size="14.00" fill="#000000">4095</text>
</g>
<!-- 2047&#45;&gt;4095 -->
<g id="edge4" class="edge">
<title>2047&#45;&gt;4095</title>
<path fill="none" stroke="#ff0000" d="M706.6405,-18C726.2405,-18 752.3105,-18 772.9905,-18"/>
<polygon fill="#ff0000" stroke="#ff0000" points="773.1305,-19.7501 778.1305,-18 773.1304,-16.2501 773.1305,-19.7501"/>
</g>
<!-- 4095&#45;&gt;4095 -->
<g id="edge5" class="edge">
<title>4095&#45;&gt;4095</title>
<path fill="none" stroke="#ff0000" d="M833.9805,-24.709C844.7405,-25.088 853.7605,-22.852 853.7605,-18 853.7605,-13.982 847.5705,-11.758 839.3405,-11.328"/>
<polygon fill="#ff0000" stroke="#ff0000" points="838.9925,-9.5756 833.9805,-11.291 838.9682,-13.0756 838.9925,-9.5756"/>
</g>
<!-- 1365 -->
<g id="node6" class="node">
<title>1365</title>
<ellipse fill="none" stroke="#000000" cx="719.7005" cy="-235.81" rx="28.6953" ry="18"/>
<text text-anchor="middle" x="719.7005" y="-232.11" font-family="Times,serif" font-size="14.00" fill="#000000">1365</text>
</g>
<!-- 1365&#45;&gt;2048 -->
<g id="edge6" class="edge">
<title>1365&#45;&gt;2048</title>
<path fill="none" stroke="#ff0000" d="M719.7005,-254.04C719.7005,-277.03 719.7005,-316.57 719.7005,-341.72"/>
<polygon fill="#ff0000" stroke="#ff0000" points="717.9506,-341.86 719.7005,-346.86 721.4506,-341.86 717.9506,-341.86"/>
</g>
<!-- 128 -->
<g id="node7" class="node">
<title>128</title>
<ellipse fill="none" stroke="#000000" cx="526.9405" cy="-676.79" rx="27" ry="18"/>
<text text-anchor="middle" x="526.9405" y="-673.09" font-family="Times,serif" font-size="14.00" fill="#000000">128</text>
</g>
<!-- 128&#45;&gt;0 -->
<g id="edge7" class="edge">
<title>128&#45;&gt;0</title>
<path fill="none" stroke="#ff0000" d="M518.3505,-659.58C491.8505,-606.56 411.5005,-445.72 382.0905,-386.87"/>
<polygon fill="#ff0000" stroke="#ff0000" points="383.5356,-385.8459 379.7405,-382.15 380.4024,-387.4059 383.5356,-385.8459"/>
</g>
<!-- 2560 -->
<g id="node8" class="node">
<title>2560</title>
<ellipse fill="none" stroke="#000000" cx="405.0105" cy="-711.89" rx="28.6953" ry="18"/>
<text text-anchor="middle" x="405.0105" y="-708.19" font-family="Times,serif" font-size="14.00" fill="#000000">2560</text>
</g>
<!-- 2560&#45;&gt;0 -->
<g id="edge8" class="edge">
<title>2560&#45;&gt;0</title>
<path fill="none" stroke="#ff0000" d="M403.2405,-693.73C397.5505,-635.42 379.7505,-453.02 373.4305,-388.17"/>
<polygon fill="#ff0000" stroke="#ff0000" points="375.1511,-387.7849 372.9205,-382.98 371.6679,-388.1272 375.1511,-387.7849"/>
</g>
<!-- 1024 -->
<g id="node9" class="node">
<title>1024</title>
<ellipse fill="none" stroke="#000000" cx="277.0505" cy="-700.59" rx="28.6953" ry="18"/>
<text text-anchor="middle" x="277.0505" y="-696.89" font-family="Times,serif" font-size="14.00" fill="#000000">1024</text>
</g>
<!-- 1024&#45;&gt;0 -->
<g id="edge9" class="edge">
<title>1024&#45;&gt;0</title>
<path fill="none" stroke="#ff0000" d="M282.1105,-682.55C298.0405,-625.74 347.1605,-450.61 364.7805,-387.75"/>
<polygon fill="#ff0000" stroke="#ff0000" points="366.5259,-388.0068 366.1905,-382.72 363.1558,-387.0621 366.5259,-388.0068"/>
</g>
<!-- 1344 -->
<g id="node10" class="node">
<title>1344</title>
<ellipse fill="none" stroke="#000000" cx="719.7005" cy="-494.19" rx="28.6953" ry="18"/>
<text text-anchor="middle" x="719.7005" y="-490.49" font-family="Times,serif" font-size="14.00" fill="#000000">1344</text>
</g>
<!-- 1344&#45;&gt;2048 -->
<g id="edge10" class="edge">
<title>1344&#45;&gt;2048</title>
<path fill="none" stroke="#ff0000" d="M719.7005,-475.96C719.7005,-452.97 719.7005,-413.43 719.7005,-388.28"/>
<polygon fill="#ff0000" stroke="#ff0000" points="721.4506,-388.14 719.7005,-383.14 717.9506,-388.14 721.4506,-388.14"/>
</g>
<!-- 2730 -->
<g id="node11" class="node">
<title>2730</title>
<ellipse fill="none" stroke="#000000" cx="161.8805" cy="-643.7" rx="28.6953" ry="18"/>
<text text-anchor="middle" x="161.8805" y="-640" font-family="Times,serif" font-size="14.00" fill="#000000">2730</text>
</g>
<!-- 2730&#45;&gt;0 -->
<g id="edge11" class="edge">
<title>2730&#45;&gt;0</title>
<path fill="none" stroke="#ff0000" d="M174.3405,-627.1C210.6305,-578.78 316.1605,-438.25 355.8405,-385.41"/>
<polygon fill="#ff0000" stroke="#ff0000" points="357.4285,-386.2094 359.0305,-381.16 354.6293,-384.1083 357.4285,-386.2094"/>
</g>
<!-- 3584 -->
<g id="node12" class="node">
<title>3584</title>
<ellipse fill="none" stroke="#000000" cx="75.1305" cy="-548.96" rx="28.6953" ry="18"/>
<text text-anchor="middle" x="75.1305" y="-545.26" font-family="Times,serif" font-size="14.00" fill="#000000">3584</text>
</g>
<!-- 3584&#45;&gt;0 -->
<g id="edge12" class="edge">
<title>3584&#45;&gt;0</title>
<path fill="none" stroke="#ff0000" d="M95.9475,-536.02C149.1805,-502.95 290.0605,-415.4 346.8905,-380.09"/>
<polygon fill="#ff0000" stroke="#ff0000" points="347.8362,-381.5626 351.1505,-377.43 345.9824,-378.5939 347.8362,-381.5626"/>
</g>
<!-- 3968 -->
<g id="node13" class="node">
<title>3968</title>
<ellipse fill="none" stroke="#000000" cx="28.5975" cy="-429.23" rx="28.6953" ry="18"/>
<text text-anchor="middle" x="28.5975" y="-425.53" font-family="Times,serif" font-size="14.00" fill="#000000">3968</text>
</g>
<!-- 3968&#45;&gt;0 -->
<g id="edge13" class="edge">
<title>3968&#45;&gt;0</title>
<path fill="none" stroke="#ff0000" d="M56.0525,-424.08C119.0305,-412.27 273.5605,-383.3 339.9905,-370.85"/>
<polygon fill="#ff0000" stroke="#ff0000" points="340.409,-372.5521 345.0005,-369.91 339.7635,-369.1121 340.409,-372.5521"/>
</g>
<!-- 3840 -->
<g id="node14" class="node">
<title>3840</title>
<ellipse fill="none" stroke="#000000" cx="28.5975" cy="-300.77" rx="28.6953" ry="18"/>
<text text-anchor="middle" x="28.5975" y="-297.07" font-family="Times,serif" font-size="14.00" fill="#000000">3840</text>
</g>
<!-- 3840&#45;&gt;0 -->
<g id="edge14" class="edge">
<title>3840&#45;&gt;0</title>
<path fill="none" stroke="#ff0000" d="M56.0525,-305.92C119.0305,-317.73 273.5605,-346.7 339.9905,-359.15"/>
<polygon fill="#ff0000" stroke="#ff0000" points="339.7635,-360.8879 345.0005,-360.09 340.409,-357.4479 339.7635,-360.8879"/>
</g>
<!-- 1920 -->
<g id="node15" class="node">
<title>1920</title>
<ellipse fill="none" stroke="#000000" cx="75.1305" cy="-181.04" rx="28.6953" ry="18"/>
<text text-anchor="middle" x="75.1305" y="-177.34" font-family="Times,serif" font-size="14.00" fill="#000000">1920</text>
</g>
<!-- 1920&#45;&gt;0 -->
<g id="edge15" class="edge">
<title>1920&#45;&gt;0</title>
<path fill="none" stroke="#ff0000" d="M95.9475,-193.98C149.1805,-227.05 290.0605,-314.6 346.8905,-349.91"/>
<polygon fill="#ff0000" stroke="#ff0000" points="345.9824,-351.4061 351.1505,-352.57 347.8362,-348.4374 345.9824,-351.4061"/>
</g>
<!-- 2944 -->
<g id="node16" class="node">
<title>2944</title>
<ellipse fill="none" stroke="#000000" cx="161.8805" cy="-86.296" rx="28.6953" ry="18"/>
<text text-anchor="middle" x="161.8805" y="-82.596" font-family="Times,serif" font-size="14.00" fill="#000000">2944</text>
</g>
<!-- 2944&#45;&gt;0 -->
<g id="edge16" class="edge">
<title>2944&#45;&gt;0</title>
<path fill="none" stroke="#ff0000" d="M174.3405,-102.9C210.6305,-151.22 316.1605,-291.75 355.8405,-344.59"/>
<polygon fill="#ff0000" stroke="#ff0000" points="354.6293,-345.8917 359.0305,-348.84 357.4285,-343.7906 354.6293,-345.8917"/>
</g>
<!-- 2688 -->
<g id="node17" class="node">
<title>2688</title>
<ellipse fill="none" stroke="#000000" cx="277.0505" cy="-29.41" rx="28.6953" ry="18"/>
<text text-anchor="middle" x="277.0505" y="-25.71" font-family="Times,serif" font-size="14.00" fill="#000000">2688</text>
</g>
<!-- 2688&#45;&gt;0 -->
<g id="edge17" class="edge">
<title>2688&#45;&gt;0</title>
<path fill="none" stroke="#ff0000" d="M282.1105,-47.453C298.0405,-104.26 347.1605,-279.39 364.7805,-342.25"/>
<polygon fill="#ff0000" stroke="#ff0000" points="363.1558,-342.9379 366.1905,-347.28 366.5259,-341.9932 363.1558,-342.9379"/>
</g>
<!-- 4032 -->
<g id="node18" class="node">
<title>4032</title>
<ellipse fill="none" stroke="#000000" cx="936.3605" cy="-18" rx="28.6953" ry="18"/>
<text text-anchor="middle" x="936.3605" y="-14.3" font-family="Times,serif" font-size="14.00" fill="#000000">4032</text>
</g>
<!-- 4032&#45;&gt;4095 -->
<g id="edge18" class="edge">
<title>4032&#45;&gt;4095</title>
<path fill="none" stroke="#ff0000" d="M907.6905,-18C888.0905,-18 862.0205,-18 841.3405,-18"/>
<polygon fill="#ff0000" stroke="#ff0000" points="841.2005,-16.2501 836.2005,-18 841.2004,-19.7501 841.2005,-16.2501"/>
</g>
<!-- 1792 -->
<g id="node19" class="node">
<title>1792</title>
<ellipse fill="none" stroke="#000000" cx="405.0105" cy="-18.11" rx="28.6953" ry="18"/>
<text text-anchor="middle" x="405.0105" y="-14.41" font-family="Times,serif" font-size="14.00" fill="#000000">1792</text>
</g>
<!-- 1792&#45;&gt;0 -->
<g id="edge19" class="edge">
<title>1792&#45;&gt;0</title>
<path fill="none" stroke="#ff0000" d="M403.2405,-36.272C397.5505,-94.577 379.7505,-276.98 373.4305,-341.83"/>
<polygon fill="#ff0000" stroke="#ff0000" points="371.6679,-341.8728 372.9205,-347.02 375.1511,-342.2151 371.6679,-341.8728"/>
</g>
<!-- 192 -->
<g id="node20" class="node">
<title>192</title>
<ellipse fill="none" stroke="#000000" cx="526.9405" cy="-53.212" rx="27" ry="18"/>
<text text-anchor="middle" x="526.9405" y="-49.512" font-family="Times,serif" font-size="14.00" fill="#000000">192</text>
</g>
<!-- 192&#45;&gt;0 -->
<g id="edge20" class="edge">
<title>192&#45;&gt;0</title>
<path fill="none" stroke="#ff0000" d="M518.3505,-70.419C491.8505,-123.44 411.5005,-284.28 382.0905,-343.13"/>
<polygon fill="#ff0000" stroke="#ff0000" points="380.4024,-342.5941 379.7405,-347.85 383.5356,-344.1541 380.4024,-342.5941"/>
</g>
<!-- 1728 -->
<g id="node21" class="node">
<title>1728</title>
<ellipse fill="none" stroke="#000000" cx="628.2305" cy="-129.64" rx="28.6953" ry="18"/>
<text text-anchor="middle" x="628.2305" y="-125.94" font-family="Times,serif" font-size="14.00" fill="#000000">1728</text>
</g>
<!-- 1728&#45;&gt;0 -->
<g id="edge21" class="edge">
<title>1728&#45;&gt;0</title>
<path fill="none" stroke="#ff0000" d="M611.7605,-144.72C566.4905,-186.17 440.2905,-301.71 391.1305,-346.72"/>
<polygon fill="#ff0000" stroke="#ff0000" points="389.6737,-345.6813 387.1705,-350.35 392.0388,-348.2614 389.6737,-345.6813"/>
</g>
</g>
</svg>
