<?xml version="1.0" encoding="UTF-8" standalone="no"?>
<!DOCTYPE svg PUBLIC "-//W3C//DTD SVG 1.1//EN"
 "http://www.w3.org/Graphics/SVG/1.1/DTD/svg11.dtd">
<!-- Generated by graphviz version 2.40.1 (20161225.0304)
 -->
<!-- Pages: 1 -->
<svg width="209pt" height="98pt"
 viewBox="0.00 0.00 209.19 98.00" xmlns="http://www.w3.org/2000/svg" xmlns:xlink="http://www.w3.org/1999/xlink">
<g id="graph0" class="graph" transform="scale(1 1) rotate(0) translate(4 94)">
<polygon fill="#ffffff" stroke="transparent" points="-4,4 -4,-94 205.19,-94 205.19,4 -4,4"/>
<!-- 0 -->
<g id="node1" class="node">
<title>0</title>
<ellipse fill="none" stroke="#000000" cx="27" cy="-18" rx="27" ry="18"/>
<text text-anchor="middle" x="27" y="-14.3" font-family="Times,serif" font-size="14.00" fill="#000000">0</text>
</g>
<!-- 0&#45;&gt;0 -->
<g id="edge1" class="edge">
<title>0&#45;&gt;0</title>
<path fill="none" stroke="#0000ff" d="M52.443,-24.691C63.028,-25.152 72,-22.922 72,-18 72,-13.924 65.847,-11.694 57.721,-11.31"/>
<polygon fill="#0000ff" stroke="#0000ff" points="57.4434,-9.56 52.443,-11.309 57.4426,-13.06 57.4434,-9.56"/>
</g>
<!-- 4095 -->
<g id="node2" class="node">
<title>4095</title>
<ellipse fill="none" stroke="#000000" cx="154.6" cy="-72" rx="28.6953" ry="18"/>
<text text-anchor="middle" x="154.6" y="-68.3" font-family="Times,serif" font-size="14.00" fill="#000000">4095</text>
</g>
<!-- 4095&#45;&gt;4095 -->
<g id="edge2" class="edge">
<title>4095&#45;&gt;4095</title>
<path fill="none" stroke="#0000ff" d="M181.41,-78.709C192.17,-79.088 201.19,-76.852 201.19,-72 201.19,-67.982 195,-65.758 186.77,-65.328"/>
<polygon fill="#0000ff" stroke="#0000ff" points="186.422,-63.5756 181.41,-65.291 186.3978,-67.0756 186.422,-63.5756"/>
</g>
<!-- 2048 -->
<g id="node3" class="node">
<title>2048</title>
<ellipse fill="none" stroke="#000000" cx="154.6" cy="-18" rx="28.6953" ry="18"/>
<text text-anchor="middle" x="154.6" y="-14.3" font-family="Times,serif" font-size="14.00" fill="#000000">2048</text>
</g>
<!-- 2048&#45;&gt;0 -->
<g id="edge3" class="edge">
<title>2048&#45;&gt;0</title>
<path fill="none" stroke="#0000ff" d="M125.96,-18C106.18,-18 79.847,-18 59.316,-18"/>
<polygon fill="#0000ff" stroke="#0000ff" points="59.229,-16.2501 54.229,-18 59.229,-19.7501 59.229,-16.2501"/>
</g>
</g>
</svg>
