<?xml version="1.0" encoding="UTF-8" standalone="no"?>
<!DOCTYPE svg PUBLIC "-//W3C//DTD SVG 1.1//EN"
 "http://www.w3.org/Graphics/SVG/1.1/DTD/svg11.dtd">
<!-- Generated by graphviz version 2.40.1 (20161225.0304)
 -->
<!-- Pages: 1 -->
<svg width="152pt" height="104pt"
 viewBox="0.00 0.00 151.60 104.00" xmlns="http://www.w3.org/2000/svg" xmlns:xlink="http://www.w3.org/1999/xlink">
<g id="graph0" class="graph" transform="scale(1 1) rotate(0) translate(4 100)">
<polygon fill="#ffffff" stroke="transparent" points="-4,4 -4,-100 147.6005,-100 147.6005,4 -4,4"/>
<!-- 0 -->
<g id="node1" class="node">
<title>0</title>
<ellipse fill="none" stroke="#000000" cx="98.5975" cy="-78" rx="27" ry="18"/>
<text text-anchor="middle" x="98.5975" y="-74.3" font-family="Times,serif" font-size="14.00" fill="#000000">0</text>
</g>
<!-- 0&#45;&gt;0 -->
<g id="edge1" class="edge">
<title>0&#45;&gt;0</title>
<path fill="none" stroke="#ff00ff" d="M124.0405,-84.691C134.6305,-85.152 143.6005,-82.922 143.6005,-78 143.6005,-73.924 137.4405,-71.694 129.3205,-71.31"/>
<polygon fill="#ff00ff" stroke="#ff00ff" points="129.0408,-69.56 124.0405,-71.309 129.0401,-73.06 129.0408,-69.56"/>
</g>
<!-- 4095 -->
<g id="node2" class="node">
<title>4095</title>
<ellipse fill="none" stroke="#000000" cx="28.5975" cy="-18" rx="28.6953" ry="18"/>
<text text-anchor="middle" x="28.5975" y="-14.3" font-family="Times,serif" font-size="14.00" fill="#000000">4095</text>
</g>
<!-- 4095&#45;&gt;4095 -->
<g id="edge2" class="edge">
<title>4095&#45;&gt;4095</title>
<path fill="none" stroke="#ff00ff" d="M55.4135,-24.709C66.1685,-25.088 75.1955,-22.852 75.1955,-18 75.1955,-13.982 69.0045,-11.758 60.7685,-11.328"/>
<polygon fill="#ff00ff" stroke="#ff00ff" points="60.4255,-9.5757 55.4135,-11.291 60.4012,-13.0756 60.4255,-9.5757"/>
</g>
</g>
</svg>
