<?xml version="1.0" encoding="UTF-8" standalone="no"?>
<!DOCTYPE svg PUBLIC "-//W3C//DTD SVG 1.1//EN"
 "http://www.w3.org/Graphics/SVG/1.1/DTD/svg11.dtd">
<!-- Generated by graphviz version 2.40.1 (20161225.0304)
 -->
<!-- Pages: 1 -->
<svg width="522pt" height="414pt"
 viewBox="0.00 0.00 521.82 414.26" xmlns="http://www.w3.org/2000/svg" xmlns:xlink="http://www.w3.org/1999/xlink">
<g id="graph0" class="graph" transform="scale(1 1) rotate(0) translate(4 410.256)">
<polygon fill="#ffffff" stroke="transparent" points="-4,4 -4,-410.256 517.8221,-410.256 517.8221,4 -4,4"/>
<!-- P0 -->
<g id="node1" class="node">
<title>P0</title>
<ellipse fill="none" stroke="#000000" cx="168.9021" cy="-156.786" rx="27" ry="18"/>
<text text-anchor="middle" x="168.9021" y="-153.086" font-family="Times,serif" font-size="14.00" fill="#000000">P0</text>
</g>
<!-- P0&#45;&gt;P0 -->
<g id="edge1" class="edge">
<title>P0&#45;&gt;P0</title>
<path fill="none" stroke="#ff0000" d="M194.3421,-163.476C204.9321,-163.936 213.9021,-161.706 213.9021,-156.786 213.9021,-152.706 207.7421,-150.476 199.6221,-150.096"/>
<polygon fill="#ff0000" stroke="#ff0000" points="199.3421,-148.3461 194.3421,-150.096 199.342,-151.8461 199.3421,-148.3461"/>
</g>
<!-- P2048 -->
<g id="node2" class="node">
<title>P2048</title>
<ellipse fill="none" stroke="#000000" cx="276.9621" cy="-262.856" rx="33.2948" ry="18"/>
<text text-anchor="middle" x="276.9621" y="-259.156" font-family="Times,serif" font-size="14.00" fill="#000000">P2048</text>
</g>
<!-- P2048&#45;&gt;P0 -->
<g id="edge2" class="edge">
<title>P2048&#45;&gt;P0</title>
<path fill="none" stroke="#ff0000" d="M260.5521,-246.746C241.1021,-227.656 208.7221,-195.876 188.1221,-175.646"/>
<polygon fill="#ff0000" stroke="#ff0000" points="189.2098,-174.262 184.4121,-172.016 186.7621,-176.7637 189.2098,-174.262"/>
</g>
<!-- P3072 -->
<g id="node3" class="node">
<title>P3072</title>
<ellipse fill="none" stroke="#000000" cx="50.0671" cy="-81.498" rx="33.2948" ry="18"/>
<text text-anchor="middle" x="50.0671" y="-77.798" font-family="Times,serif" font-size="14.00" fill="#000000">P3072</text>
</g>
<!-- P3072&#45;&gt;P0 -->
<g id="edge3" class="edge">
<title>P3072&#45;&gt;P0</title>
<path fill="none" stroke="#ff0000" d="M71.8631,-95.307C92.5061,-108.386 123.4421,-127.986 144.8121,-141.526"/>
<polygon fill="#ff0000" stroke="#ff0000" points="144.0522,-143.1163 149.2121,-144.316 145.9266,-140.1605 144.0522,-143.1163"/>
</g>
<!-- P2047 -->
<g id="node4" class="node">
<title>P2047</title>
<ellipse fill="none" stroke="#000000" cx="407.1221" cy="-176.646" rx="33.2948" ry="18"/>
<text text-anchor="middle" x="407.1221" y="-172.946" font-family="Times,serif" font-size="14.00" fill="#000000">P2047</text>
</g>
<!-- P4095 -->
<g id="node5" class="node">
<title>P4095</title>
<ellipse fill="none" stroke="#000000" cx="462.6721" cy="-132.066" rx="33.2948" ry="18"/>
<text text-anchor="middle" x="462.6721" y="-128.366" font-family="Times,serif" font-size="14.00" fill="#000000">P4095</text>
</g>
<!-- P2047&#45;&gt;P4095 -->
<g id="edge4" class="edge">
<title>P2047&#45;&gt;P4095</title>
<path fill="none" stroke="#ff0000" d="M425.9321,-161.556C430.3621,-157.996 435.1421,-154.166 439.7321,-150.476"/>
<polygon fill="#ff0000" stroke="#ff0000" points="441.0775,-151.6402 443.8821,-147.146 438.887,-148.9103 441.0775,-151.6402"/>
</g>
<!-- P4095&#45;&gt;P4095 -->
<g id="edge5" class="edge">
<title>P4095&#45;&gt;P4095</title>
<path fill="none" stroke="#ff0000" d="M493.6321,-138.806C504.7521,-138.956 513.8221,-136.706 513.8221,-132.066 513.8221,-128.146 507.3621,-125.936 498.6721,-125.426"/>
<polygon fill="#ff0000" stroke="#ff0000" points="498.6658,-123.6756 493.6321,-125.326 498.5963,-127.1749 498.6658,-123.6756"/>
</g>
<!-- P1365 -->
<g id="node6" class="node">
<title>P1365</title>
<ellipse fill="none" stroke="#000000" cx="335.8321" cy="-388.256" rx="33.2948" ry="18"/>
<text text-anchor="middle" x="335.8321" y="-384.556" font-family="Times,serif" font-size="14.00" fill="#000000">P1365</text>
</g>
<!-- P1365&#45;&gt;P2048 -->
<g id="edge6" class="edge">
<title>P1365&#45;&gt;P2048</title>
<path fill="none" stroke="#ff0000" d="M327.5221,-370.556C317.0021,-348.156 298.8821,-309.546 287.4321,-285.146"/>
<polygon fill="#ff0000" stroke="#ff0000" points="288.943,-284.2465 285.2321,-280.466 285.7755,-285.7355 288.943,-284.2465"/>
</g>
<!-- P128 -->
<g id="node7" class="node">
<title>P128</title>
<ellipse fill="none" stroke="#000000" cx="220.7321" cy="-71.694" rx="28.6953" ry="18"/>
<text text-anchor="middle" x="220.7321" y="-67.994" font-family="Times,serif" font-size="14.00" fill="#000000">P128</text>
</g>
<!-- P128&#45;&gt;P0 -->
<g id="edge7" class="edge">
<title>P128&#45;&gt;P0</title>
<path fill="none" stroke="#ff0000" d="M210.4921,-88.505C202.2521,-102.026 190.6421,-121.096 181.7721,-135.646"/>
<polygon fill="#ff0000" stroke="#ff0000" points="180.2236,-134.8243 179.1221,-140.006 183.2145,-136.6422 180.2236,-134.8243"/>
</g>
<!-- P2560 -->
<g id="node8" class="node">
<title>P2560</title>
<ellipse fill="none" stroke="#000000" cx="33.6721" cy="-127.216" rx="33.2948" ry="18"/>
<text text-anchor="middle" x="33.6721" y="-123.516" font-family="Times,serif" font-size="14.00" fill="#000000">P2560</text>
</g>
<!-- P2560&#45;&gt;P0 -->
<g id="edge8" class="edge">
<title>P2560&#45;&gt;P0</title>
<path fill="none" stroke="#ff0000" d="M64.6961,-133.996C86.6411,-138.796 115.9421,-145.206 137.8921,-150.006"/>
<polygon fill="#ff0000" stroke="#ff0000" points="137.7536,-151.767 143.0121,-151.126 138.5016,-148.3479 137.7536,-151.767"/>
</g>
<!-- P1024 -->
<g id="node9" class="node">
<title>P1024</title>
<ellipse fill="none" stroke="#000000" cx="33.1471" cy="-181.496" rx="33.2948" ry="18"/>
<text text-anchor="middle" x="33.1471" y="-177.796" font-family="Times,serif" font-size="14.00" fill="#000000">P1024</text>
</g>
<!-- P1024&#45;&gt;P0 -->
<g id="edge9" class="edge">
<title>P1024&#45;&gt;P0</title>
<path fill="none" stroke="#ff0000" d="M64.6321,-175.766C86.5311,-171.776 115.6021,-166.486 137.4921,-162.506"/>
<polygon fill="#ff0000" stroke="#ff0000" points="137.9962,-164.1931 142.6021,-161.576 137.3695,-160.7496 137.9962,-164.1931"/>
</g>
<!-- P1344 -->
<g id="node10" class="node">
<title>P1344</title>
<ellipse fill="none" stroke="#000000" cx="403.3321" cy="-323.436" rx="33.2948" ry="18"/>
<text text-anchor="middle" x="403.3321" y="-319.736" font-family="Times,serif" font-size="14.00" fill="#000000">P1344</text>
</g>
<!-- P1344&#45;&gt;P2048 -->
<g id="edge10" class="edge">
<title>P1344&#45;&gt;P2048</title>
<path fill="none" stroke="#ff0000" d="M378.3721,-311.466C357.6821,-301.556 328.2521,-287.446 306.4221,-276.976"/>
<polygon fill="#ff0000" stroke="#ff0000" points="307.1479,-275.3834 301.8821,-274.806 305.6385,-278.5412 307.1479,-275.3834"/>
</g>
<!-- P2730 -->
<g id="node11" class="node">
<title>P2730</title>
<ellipse fill="none" stroke="#000000" cx="132.8721" cy="-73.762" rx="33.2948" ry="18"/>
<text text-anchor="middle" x="132.8721" y="-70.062" font-family="Times,serif" font-size="14.00" fill="#000000">P2730</text>
</g>
<!-- P2730&#45;&gt;P0 -->
<g id="edge11" class="edge">
<title>P2730&#45;&gt;P0</title>
<path fill="none" stroke="#ff0000" d="M140.5121,-91.369C146.0021,-104.006 153.4221,-121.116 159.3021,-134.666"/>
<polygon fill="#ff0000" stroke="#ff0000" points="157.7973,-135.5949 161.3921,-139.486 161.0085,-134.2025 157.7973,-135.5949"/>
</g>
<!-- P3584 -->
<g id="node12" class="node">
<title>P3584</title>
<ellipse fill="none" stroke="#000000" cx="113.5121" cy="-18.985" rx="33.2948" ry="18"/>
<text text-anchor="middle" x="113.5121" y="-15.285" font-family="Times,serif" font-size="14.00" fill="#000000">P3584</text>
</g>
<!-- P3584&#45;&gt;P0 -->
<g id="edge12" class="edge">
<title>P3584&#45;&gt;P0</title>
<path fill="none" stroke="#ff0000" d="M120.6421,-36.718C130.6521,-61.627 148.8821,-106.976 159.8421,-134.246"/>
<polygon fill="#ff0000" stroke="#ff0000" points="158.3117,-135.131 161.8021,-139.116 161.5587,-133.8242 158.3117,-135.131"/>
</g>
<!-- P3968 -->
<g id="node13" class="node">
<title>P3968</title>
<ellipse fill="none" stroke="#000000" cx="295.2521" cy="-92.153" rx="33.2948" ry="18"/>
<text text-anchor="middle" x="295.2521" y="-88.453" font-family="Times,serif" font-size="14.00" fill="#000000">P3968</text>
</g>
<!-- P3968&#45;&gt;P0 -->
<g id="edge13" class="edge">
<title>P3968&#45;&gt;P0</title>
<path fill="none" stroke="#ff0000" d="M270.8921,-104.616C249.2021,-115.706 217.5421,-131.906 195.2621,-143.296"/>
<polygon fill="#ff0000" stroke="#ff0000" points="194.3119,-141.8165 190.6621,-145.656 195.9096,-144.9306 194.3119,-141.8165"/>
</g>
<!-- P3840 -->
<g id="node14" class="node">
<title>P3840</title>
<ellipse fill="none" stroke="#000000" cx="51.7601" cy="-231.326" rx="33.2948" ry="18"/>
<text text-anchor="middle" x="51.7601" y="-227.626" font-family="Times,serif" font-size="14.00" fill="#000000">P3840</text>
</g>
<!-- P3840&#45;&gt;P0 -->
<g id="edge14" class="edge">
<title>P3840&#45;&gt;P0</title>
<path fill="none" stroke="#ff0000" d="M73.5181,-217.476C93.7791,-204.586 123.9221,-185.406 144.8821,-172.066"/>
<polygon fill="#ff0000" stroke="#ff0000" points="145.9239,-173.4773 149.2021,-169.316 144.0444,-170.5248 145.9239,-173.4773"/>
</g>
<!-- P1920 -->
<g id="node15" class="node">
<title>P1920</title>
<ellipse fill="none" stroke="#000000" cx="281.0021" cy="-193.526" rx="33.2948" ry="18"/>
<text text-anchor="middle" x="281.0021" y="-189.826" font-family="Times,serif" font-size="14.00" fill="#000000">P1920</text>
</g>
<!-- P1920&#45;&gt;P0 -->
<g id="edge15" class="edge">
<title>P1920&#45;&gt;P0</title>
<path fill="none" stroke="#ff0000" d="M252.4221,-184.166C235.8521,-178.726 215.0121,-171.896 198.2921,-166.416"/>
<polygon fill="#ff0000" stroke="#ff0000" points="198.5484,-164.6586 193.2521,-164.766 197.4594,-167.9849 198.5484,-164.6586"/>
</g>
<!-- P2944 -->
<g id="node16" class="node">
<title>P2944</title>
<ellipse fill="none" stroke="#000000" cx="112.9121" cy="-286.516" rx="33.2948" ry="18"/>
<text text-anchor="middle" x="112.9121" y="-282.816" font-family="Times,serif" font-size="14.00" fill="#000000">P2944</text>
</g>
<!-- P2944&#45;&gt;P0 -->
<g id="edge16" class="edge">
<title>P2944&#45;&gt;P0</title>
<path fill="none" stroke="#ff0000" d="M120.5821,-268.746C130.6321,-245.456 148.2721,-204.586 159.2321,-179.196"/>
<polygon fill="#ff0000" stroke="#ff0000" points="160.9544,-179.6207 161.3221,-174.336 157.7391,-178.2379 160.9544,-179.6207"/>
</g>
<!-- P2688 -->
<g id="node17" class="node">
<title>P2688</title>
<ellipse fill="none" stroke="#000000" cx="194.3221" cy="-280.896" rx="33.2948" ry="18"/>
<text text-anchor="middle" x="194.3221" y="-277.196" font-family="Times,serif" font-size="14.00" fill="#000000">P2688</text>
</g>
<!-- P2688&#45;&gt;P0 -->
<g id="edge17" class="edge">
<title>P2688&#45;&gt;P0</title>
<path fill="none" stroke="#ff0000" d="M190.6221,-262.856C186.1221,-240.886 178.5221,-203.756 173.6021,-179.766"/>
<polygon fill="#ff0000" stroke="#ff0000" points="175.3148,-179.4061 172.6021,-174.856 171.8852,-180.1047 175.3148,-179.4061"/>
</g>
<!-- P4032 -->
<g id="node18" class="node">
<title>P4032</title>
<ellipse fill="none" stroke="#000000" cx="467.9421" cy="-85.687" rx="33.2948" ry="18"/>
<text text-anchor="middle" x="467.9421" y="-81.987" font-family="Times,serif" font-size="14.00" fill="#000000">P4032</text>
</g>
<!-- P4032&#45;&gt;P4095 -->
<g id="edge18" class="edge">
<title>P4032&#45;&gt;P4095</title>
<path fill="none" stroke="#ff0000" d="M465.8921,-103.746C465.7021,-105.426 465.5021,-107.146 465.3121,-108.866"/>
<polygon fill="#ff0000" stroke="#ff0000" points="463.5572,-108.8105 464.7321,-113.976 467.0349,-109.2053 463.5572,-108.8105"/>
</g>
<!-- P1792 -->
<g id="node19" class="node">
<title>P1792</title>
<ellipse fill="none" stroke="#000000" cx="289.8021" cy="-137.036" rx="33.2948" ry="18"/>
<text text-anchor="middle" x="289.8021" y="-133.336" font-family="Times,serif" font-size="14.00" fill="#000000">P1792</text>
</g>
<!-- P1792&#45;&gt;P0 -->
<g id="edge19" class="edge">
<title>P1792&#45;&gt;P0</title>
<path fill="none" stroke="#ff0000" d="M258.0421,-142.226C240.2821,-145.126 218.2321,-148.726 200.5021,-151.626"/>
<polygon fill="#ff0000" stroke="#ff0000" points="199.8063,-149.9661 195.1521,-152.496 200.3681,-153.4207 199.8063,-149.9661"/>
</g>
<!-- P192 -->
<g id="node20" class="node">
<title>P192</title>
<ellipse fill="none" stroke="#000000" cx="188.0721" cy="-18" rx="28.6953" ry="18"/>
<text text-anchor="middle" x="188.0721" y="-14.3" font-family="Times,serif" font-size="14.00" fill="#000000">P192</text>
</g>
<!-- P192&#45;&gt;P0 -->
<g id="edge20" class="edge">
<title>P192&#45;&gt;P0</title>
<path fill="none" stroke="#ff0000" d="M185.5621,-36.144C182.1221,-61.079 175.9221,-105.966 172.1321,-133.396"/>
<polygon fill="#ff0000" stroke="#ff0000" points="170.3588,-133.4423 171.4021,-138.636 173.8253,-133.9253 170.3588,-133.4423"/>
</g>
<!-- P1728 -->
<g id="node21" class="node">
<title>P1728</title>
<ellipse fill="none" stroke="#000000" cx="136.1421" cy="-231.806" rx="33.2948" ry="18"/>
<text text-anchor="middle" x="136.1421" y="-228.106" font-family="Times,serif" font-size="14.00" fill="#000000">P1728</text>
</g>
<!-- P1728&#45;&gt;P0 -->
<g id="edge21" class="edge">
<title>P1728&#45;&gt;P0</title>
<path fill="none" stroke="#ff0000" d="M143.9021,-214.026C148.5121,-203.486 154.3821,-190.036 159.2721,-178.826"/>
<polygon fill="#ff0000" stroke="#ff0000" points="160.9054,-179.4586 161.3021,-174.176 157.6977,-178.0582 160.9054,-179.4586"/>
</g>
</g>
</svg>
