<?xml version="1.0" encoding="UTF-8" standalone="no"?>
<!DOCTYPE svg PUBLIC "-//W3C//DTD SVG 1.1//EN"
 "http://www.w3.org/Graphics/SVG/1.1/DTD/svg11.dtd">
<!-- Generated by graphviz version 2.40.1 (20161225.0304)
 -->
<!-- Pages: 1 -->
<svg width="158pt" height="104pt"
 viewBox="0.00 0.00 158.15 104.00" xmlns="http://www.w3.org/2000/svg" xmlns:xlink="http://www.w3.org/1999/xlink">
<g id="graph0" class="graph" transform="scale(1 1) rotate(0) translate(4 100)">
<polygon fill="#ffffff" stroke="transparent" points="-4,4 -4,-100 154.1501,-100 154.1501,4 -4,4"/>
<!-- P0 -->
<g id="node1" class="node">
<title>P0</title>
<ellipse fill="none" stroke="#000000" cx="105.1501" cy="-78" rx="27" ry="18"/>
<text text-anchor="middle" x="105.1501" y="-74.3" font-family="Times,serif" font-size="14.00" fill="#000000">P0</text>
</g>
<!-- P0&#45;&gt;P0 -->
<g id="edge1" class="edge">
<title>P0&#45;&gt;P0</title>
<path fill="none" stroke="#ff00ff" d="M130.5901,-84.691C141.1701,-85.152 150.1501,-82.922 150.1501,-78 150.1501,-73.924 143.9901,-71.694 135.8701,-71.31"/>
<polygon fill="#ff00ff" stroke="#ff00ff" points="135.5904,-69.56 130.5901,-71.309 135.5897,-73.06 135.5904,-69.56"/>
</g>
<!-- P4095 -->
<g id="node2" class="node">
<title>P4095</title>
<ellipse fill="none" stroke="#000000" cx="33.1471" cy="-18" rx="33.2948" ry="18"/>
<text text-anchor="middle" x="33.1471" y="-14.3" font-family="Times,serif" font-size="14.00" fill="#000000">P4095</text>
</g>
<!-- P4095&#45;&gt;P4095 -->
<g id="edge2" class="edge">
<title>P4095&#45;&gt;P4095</title>
<path fill="none" stroke="#ff00ff" d="M64.1091,-24.743C75.2291,-24.888 84.2941,-22.641 84.2941,-18 84.2941,-14.084 77.8401,-11.872 69.1441,-11.364"/>
<polygon fill="#ff00ff" stroke="#ff00ff" points="69.1451,-9.6137 64.1091,-11.257 69.0707,-13.1129 69.1451,-9.6137"/>
</g>
</g>
</svg>
