<?xml version="1.0" encoding="UTF-8" standalone="no"?>
<!DOCTYPE svg PUBLIC "-//W3C//DTD SVG 1.1//EN"
 "http://www.w3.org/Graphics/SVG/1.1/DTD/svg11.dtd">
<!-- Generated by graphviz version 2.40.1 (20161225.0304)
 -->
<!-- Pages: 1 -->
<svg width="227pt" height="98pt"
 viewBox="0.00 0.00 227.29 98.00" xmlns="http://www.w3.org/2000/svg" xmlns:xlink="http://www.w3.org/1999/xlink">
<g id="graph0" class="graph" transform="scale(1 1) rotate(0) translate(4 94)">
<polygon fill="#ffffff" stroke="transparent" points="-4,4 -4,-94 223.29,-94 223.29,4 -4,4"/>
<!-- P0 -->
<g id="node1" class="node">
<title>P0</title>
<ellipse fill="none" stroke="#000000" cx="27" cy="-18" rx="27" ry="18"/>
<text text-anchor="middle" x="27" y="-14.3" font-family="Times,serif" font-size="14.00" fill="#000000">P0</text>
</g>
<!-- P0&#45;&gt;P0 -->
<g id="edge1" class="edge">
<title>P0&#45;&gt;P0</title>
<path fill="none" stroke="#0000ff" d="M52.443,-24.691C63.028,-25.152 72,-22.922 72,-18 72,-13.924 65.847,-11.694 57.721,-11.31"/>
<polygon fill="#0000ff" stroke="#0000ff" points="57.4434,-9.56 52.443,-11.309 57.4426,-13.06 57.4434,-9.56"/>
</g>
<!-- P4095 -->
<g id="node2" class="node">
<title>P4095</title>
<ellipse fill="none" stroke="#000000" cx="168.15" cy="-72" rx="33.2948" ry="18"/>
<text text-anchor="middle" x="168.15" y="-68.3" font-family="Times,serif" font-size="14.00" fill="#000000">P4095</text>
</g>
<!-- P4095&#45;&gt;P4095 -->
<g id="edge2" class="edge">
<title>P4095&#45;&gt;P4095</title>
<path fill="none" stroke="#0000ff" d="M199.11,-78.743C210.23,-78.888 219.29,-76.641 219.29,-72 219.29,-68.084 212.84,-65.872 204.14,-65.364"/>
<polygon fill="#0000ff" stroke="#0000ff" points="204.1461,-63.6138 199.11,-65.257 204.0716,-67.113 204.1461,-63.6138"/>
</g>
<!-- P2048 -->
<g id="node3" class="node">
<title>P2048</title>
<ellipse fill="none" stroke="#000000" cx="159.15" cy="-18" rx="33.2948" ry="18"/>
<text text-anchor="middle" x="159.15" y="-14.3" font-family="Times,serif" font-size="14.00" fill="#000000">P2048</text>
</g>
<!-- P2048&#45;&gt;P0 -->
<g id="edge3" class="edge">
<title>P2048&#45;&gt;P0</title>
<path fill="none" stroke="#0000ff" d="M125.8,-18C105.36,-18 79.328,-18 59.117,-18"/>
<polygon fill="#0000ff" stroke="#0000ff" points="59.111,-16.2501 54.111,-18 59.111,-19.7501 59.111,-16.2501"/>
</g>
</g>
</svg>
